<?xml version="1.0" standalone="no"?>
<!DOCTYPE svg PUBLIC "-//W3C//DTD SVG 20010904//EN"
 "http://www.w3.org/TR/2001/REC-SVG-20010904/DTD/svg10.dtd">
<svg version="1.0" xmlns="http://www.w3.org/2000/svg"
 width="1024.000000pt" height="1024.000000pt" viewBox="0 0 1024.000000 1024.000000"
 preserveAspectRatio="xMidYMid meet">

<g transform="translate(0.000000,1024.000000) scale(0.100000,-0.100000)"
fill="#000000" stroke="none">
<path d="M4730 8585 c-285 -30 -653 -130 -923 -250 -314 -141 -632 -353 -858
-572 -65 -64 -116 -120 -112 -126 3 -5 1 -7 -5 -3 -26 16 -307 -347 -436 -564
-192 -321 -306 -605 -395 -981 -127 -536 -96 -1238 75 -1696 131 -351 329
-694 578 -1003 197 -244 427 -446 722 -632 205 -130 663 -342 695 -322 8 5 9
3 4 -6 -6 -10 -3 -12 13 -8 12 4 20 3 17 -2 -6 -10 212 -73 231 -66 8 3 13 2
10 -2 -7 -12 130 -43 150 -35 11 4 15 2 11 -4 -9 -14 22 -19 203 -37 80 -7
154 -15 165 -16 86 -9 411 -9 500 -1 151 15 468 82 645 137 282 87 625 250
817 389 23 16 62 42 85 57 104 65 416 353 535 493 92 108 222 288 216 298 -3
6 -1 7 4 4 15 -9 36 19 27 35 -4 7 -4 10 1 6 5 -5 25 18 45 50 21 31 55 84 76
117 38 58 84 157 84 179 0 6 8 16 18 23 10 6 29 40 41 75 13 34 31 77 41 93
23 38 61 137 55 143 -3 3 -9 -6 -14 -19 -9 -23 -10 -23 -10 -2 -1 12 7 24 17
27 20 7 77 158 68 182 -4 10 -2 13 6 8 8 -5 9 4 5 32 -4 21 -3 33 2 26 5 -8
15 16 29 65 54 203 76 409 75 703 -1 413 -49 697 -176 1055 -60 168 -151 371
-165 368 -6 -2 -9 3 -6 11 5 14 -20 63 -123 244 -60 103 -67 111 -80 95 -13
-16 -13 -16 -3 5 10 20 2 35 -60 126 -162 239 -404 494 -635 670 -196 150
-539 354 -573 341 -7 -2 -10 0 -7 5 7 12 -46 39 -181 91 -259 98 -538 166
-802 193 -183 19 -523 19 -702 1z m1998 -480 c-3 -3 -9 2 -12 12 -6 14 -5 15
5 6 7 -7 10 -15 7 -18z m278 -178 c5 -9 4 -9 -6 0 -7 6 -18 9 -25 7 -6 -3 -12
2 -12 10 0 11 5 13 18 5 10 -5 21 -15 25 -22z m-623 -4 c-13 -2 -33 -2 -45 0
-13 2 -3 4 22 4 25 0 35 -2 23 -4z m-2028 -37 c343 -74 570 -268 695 -593 26
-67 40 -80 40 -37 0 14 4 23 8 20 4 -2 28 37 52 87 142 298 305 439 598 519
67 18 114 21 365 25 321 6 325 5 353 -64 17 -40 14 -68 -23 -247 -58 -282
-171 -495 -337 -636 -95 -81 -176 -131 -274 -168 -143 -55 -206 -66 -353 -67
l-136 0 -74 38 c-69 34 -81 37 -179 41 -100 3 -108 2 -167 -26 -156 -74 -353
-77 -549 -8 -127 44 -302 171 -404 293 -68 82 -145 224 -184 342 -37 109 -96
351 -96 392 0 45 44 93 96 104 64 13 489 2 569 -15z m2700 4 c3 -5 1 -10 -4
-10 -6 0 -11 5 -11 10 0 6 2 10 4 10 3 0 8 -4 11 -10z m95 -84 c0 -3 -15 4
-34 16 -19 13 -30 26 -24 29 9 6 58 -31 58 -45z m34 -37 c-3 -5 -10 -7 -15 -3
-5 3 -7 10 -3 15 3 5 10 7 15 3 5 -3 7 -10 3 -15z m36 -30 c0 -5 -4 -9 -8 -9
-5 0 -9 7 -9 15 0 8 4 12 9 9 4 -3 8 -9 8 -15z m134 -138 c-4 -3 -9 0 -11 7
-3 6 -10 9 -15 6 -7 -4 -8 -2 -4 5 6 9 11 9 22 0 8 -6 12 -15 8 -18z m32 -28
c-3 -3 14 -23 37 -45 23 -22 41 -44 39 -49 -1 -5 5 -12 13 -15 24 -10 17 -22
-10 -16 -18 3 -28 13 -34 36 -4 17 -13 30 -20 29 -6 -2 -11 2 -11 7 0 6 -9 20
-20 32 -24 26 -26 40 -5 31 9 -3 14 -8 11 -10z m129 -160 c18 -14 18 -15 2 -9
-10 3 -25 6 -33 6 -8 0 -14 5 -14 10 0 15 22 12 45 -7z m25 -38 c0 -8 -4 -15
-10 -15 -5 0 -7 7 -4 15 4 8 8 15 10 15 2 0 4 -7 4 -15z m35 -35 c3 -5 1 -10
-4 -10 -6 0 -11 5 -11 10 0 6 2 10 4 10 3 0 8 -4 11 -10z m95 -126 c0 -8 -19
-13 -24 -6 -3 5 1 9 9 9 8 0 15 -2 15 -3z m74 -122 c3 -5 -1 -9 -9 -9 -8 0
-15 4 -15 9 0 4 4 8 9 8 6 0 12 -4 15 -8z m63 -140 c-4 -13 -5 -13 -6 4 0 12
-8 27 -16 34 -8 7 -15 17 -15 23 0 5 9 -2 21 -17 11 -14 18 -34 16 -44z m27
-18 c3 -8 2 -12 -4 -9 -6 3 -10 10 -10 16 0 14 7 11 14 -7z m26 -71 c-1 -24
-2 -26 -11 -10 -5 9 -7 22 -4 27 10 17 15 11 15 -17z m-1030 -488 c26 -23 58
-84 99 -187 16 -40 63 -149 104 -243 41 -93 100 -235 132 -314 52 -130 56
-146 44 -170 -14 -28 -16 -34 -18 -53 -1 -8 -4 -9 -9 -3 -5 7 -711 10 -2083
10 -1996 0 -2078 1 -2097 18 -11 10 -23 29 -26 42 -5 21 10 100 29 146 3 10 2
20 -4 24 -6 3 -11 1 -11 -5 0 -7 -6 -5 -15 4 -8 8 -15 22 -15 31 0 18 67 88
78 81 4 -2 8 3 9 12 10 108 24 147 50 138 8 -3 11 -1 8 4 -3 6 -2 10 3 10 15
0 24 30 27 93 2 33 10 66 18 75 9 11 12 24 7 37 -9 25 -4 35 20 35 10 0 20 5
22 12 6 18 -3 58 -14 58 -5 0 3 11 17 25 14 14 25 29 25 34 0 4 7 8 15 8 8 0
15 -4 15 -9 0 -4 -5 -8 -11 -8 -5 0 -7 -4 -4 -10 3 -5 0 -20 -7 -32 -11 -20
-37 -87 -38 -96 0 -2 4 -1 8 2 5 3 21 38 37 78 30 80 64 131 98 150 34 20 314
23 1964 23 1480 -1 1502 -1 1523 -20z m347 -717 c-3 -8 -6 -5 -6 6 -1 11 2 17
5 13 3 -3 4 -12 1 -19z m20 -43 c0 -8 -4 -12 -9 -9 -5 3 -6 10 -3 15 9 13 12
11 12 -6z m31 -37 c16 -16 15 -31 0 -22 -10 6 -10 4 0 -7 6 -7 12 -20 12 -28
0 -24 -27 8 -35 42 -8 28 3 35 23 15z m4 -120 c-6 -6 -7 0 -4 19 5 21 7 23 10
9 2 -10 0 -22 -6 -28z m-497 -503 c3 -143 5 -532 3 -865 l-3 -605 -26 -55
c-43 -91 -138 -174 -242 -210 -55 -20 -85 -20 -1380 -20 -1314 0 -1324 0
-1385 21 -89 30 -175 89 -206 141 -59 101 -56 57 -55 962 0 702 2 891 8 891 1
0 739 0 1640 0 l1639 0 7 -260z m1295 -656 c0 -13 -4 -18 -12 -13 -10 6 -10 4
0 -8 8 -10 9 -19 4 -22 -11 -7 -22 16 -22 45 0 10 7 19 15 19 8 0 15 -9 15
-21z m-138 -301 c-7 -7 -12 -8 -12 -2 0 14 12 26 19 19 2 -3 -1 -11 -7 -17z
m-75 -145 c-5 -12 -15 -23 -20 -23 -6 0 -7 -3 -4 -7 8 -7 -11 -33 -24 -33 -5
0 -9 16 -9 35 0 28 4 35 19 35 11 0 23 9 26 21 5 16 9 18 15 9 5 -7 3 -24 -3
-37z m-63 -89 c3 -8 2 -12 -4 -9 -6 3 -10 10 -10 16 0 14 7 11 14 -7z m-109
-164 c-3 -5 -12 -10 -18 -10 -7 0 -6 4 3 10 19 12 23 12 15 0z m-125 -164 c0
-2 -7 -7 -16 -10 -8 -3 -12 -2 -9 4 6 10 25 14 25 6z m-3780 -840 c0 -3 -4 -8
-10 -11 -5 -3 -10 -1 -10 4 0 6 5 11 10 11 6 0 10 -2 10 -4z m59 -36 c11 0 21
-4 21 -9 0 -6 -12 -6 -30 -1 -41 12 -51 20 -44 32 5 7 11 5 19 -5 7 -10 22
-17 34 -17z m51 -20 c0 -5 -4 -10 -10 -10 -5 0 -10 5 -10 10 0 6 5 10 10 10 6
0 10 -4 10 -10z m25 -20 c3 -5 1 -10 -4 -10 -6 0 -11 5 -11 10 0 6 2 10 4 10
3 0 8 -4 11 -10z m30 -10 c3 -5 1 -10 -4 -10 -6 0 -11 5 -11 10 0 6 2 10 4 10
3 0 8 -4 11 -10z m35 -15 c11 -13 10 -14 -4 -9 -9 3 -16 10 -16 15 0 13 6 11
20 -6z m270 -96 c25 -14 -9 -10 -50 7 l-35 14 35 -6 c19 -4 42 -10 50 -15z
m197 -55 c-3 -3 -12 -4 -19 -1 -8 3 -5 6 6 6 11 1 17 -2 13 -5z m57 -13 c3 -4
-6 -6 -19 -3 -14 2 -25 6 -25 8 0 8 39 4 44 -5z"/>
<path d="M3900 7710 c0 -59 83 -306 143 -425 91 -180 255 -314 437 -359 102
-24 147 -29 154 -17 4 6 1 11 -8 11 -22 0 -28 17 -14 40 10 16 10 24 0 41 -13
21 -13 21 12 3 14 -11 26 -25 26 -33 0 -8 3 -11 7 -8 10 11 43 -24 43 -45 0
-11 7 -18 20 -18 11 0 20 4 20 8 0 15 -251 254 -380 363 -140 117 -159 143
-136 186 7 16 23 36 34 46 19 17 22 17 51 2 70 -36 266 -188 412 -319 164
-148 198 -176 211 -176 27 0 -22 174 -87 306 -102 210 -242 320 -490 385 -62
16 -123 22 -267 26 l-188 6 0 -23z"/>
<path d="M5955 7724 c-96 -12 -187 -29 -240 -45 -119 -37 -287 -180 -349 -298
-38 -73 -101 -249 -92 -259 3 -3 6 0 6 6 0 7 6 12 14 12 8 0 17 6 20 13 3 6 3
2 1 -9 -5 -18 -2 -21 20 -16 15 2 25 0 25 -7 0 -7 -4 -9 -10 -6 -6 3 -10 -4
-10 -16 0 -17 23 1 108 86 59 59 150 139 202 178 52 39 118 89 145 112 28 22
65 47 83 54 29 12 35 12 53 -5 31 -28 51 -73 45 -99 -8 -33 -51 -80 -105 -117
-71 -49 -246 -204 -288 -255 -21 -26 -55 -62 -75 -81 -34 -31 -53 -62 -29 -47
5 3 21 0 34 -6 50 -23 270 34 364 93 56 36 158 129 175 161 7 13 7 22 -1 30
-6 6 -11 15 -11 21 0 5 6 1 14 -9 12 -17 15 -16 45 25 30 41 42 78 21 65 -16
-10 -12 11 5 25 8 7 15 9 15 4 0 -5 14 20 31 56 28 58 109 304 109 330 0 9
-251 12 -325 4z"/>
<path d="M5321 7084 c0 -11 3 -14 6 -6 3 7 2 16 -1 19 -3 4 -6 -2 -5 -13z"/>
<path d="M3179 6108 c-1 -7 -1 -16 0 -20 0 -5 -4 -8 -10 -8 -5 0 -8 -4 -4 -9
3 -5 1 -12 -5 -16 -6 -4 -8 -11 -5 -16 4 -5 1 -9 -4 -9 -6 0 -11 -12 -11 -27
0 -34 7 -27 29 33 10 27 22 57 26 67 4 10 3 17 -4 17 -6 0 -12 -6 -12 -12z"/>
<path d="M3076 5853 c-4 -16 -9 -37 -12 -48 -3 -15 -1 -14 9 5 21 37 30 70 19
70 -6 0 -13 -12 -16 -27z"/>
<path d="M4431 4666 c-23 -24 -24 -30 -18 -128 9 -173 73 -322 194 -449 103
-108 221 -159 366 -159 l50 0 -5 -77 c-7 -93 4 -194 16 -153 14 49 3 222 -15
245 -4 6 -4 17 1 25 17 27 10 40 -67 122 -89 95 -193 233 -193 255 0 19 73
-21 138 -76 24 -20 56 -44 72 -54 28 -18 29 -18 48 1 15 15 21 40 27 106 l7
87 -41 54 c-45 59 -121 125 -182 155 -62 32 -179 60 -279 66 -93 6 -96 6 -119
-20z"/>
<path d="M5545 4679 c-75 -11 -115 -24 -190 -61 -104 -51 -235 -197 -235 -262
0 -56 32 -147 57 -163 23 -15 26 -14 96 54 70 67 164 139 172 131 10 -9 -140
-220 -204 -288 -106 -112 -94 -146 49 -138 60 4 92 12 144 37 73 35 111 68
174 152 39 52 61 96 26 53 -11 -14 -17 -15 -21 -6 -2 7 -11 19 -19 27 -12 11
-12 21 -2 59 7 25 16 46 20 46 4 0 8 14 8 30 0 23 4 30 20 30 13 0 20 7 20 20
0 13 7 20 20 20 13 0 20 7 20 20 0 22 16 23 39 2 23 -22 35 12 35 98 0 144
-37 167 -229 139z m10 -19 c-16 -4 -41 -8 -55 -8 l-25 0 25 8 c14 4 39 8 55 8
l30 0 -30 -8z m201 -97 c-10 -10 -19 5 -10 18 6 11 8 11 12 0 2 -7 1 -15 -2
-18z m-189 -445 c-3 -8 -6 -5 -6 6 -1 11 2 17 5 13 3 -3 4 -12 1 -19z"/>
<path d="M5157 3866 c-33 -38 -37 -50 -37 -113 0 -53 3 -63 18 -63 34 0 46 18
50 77 2 32 0 72 -5 89 l-8 31 -18 -21z"/>
</g>
</svg>
